<?xml version="1.0" standalone="no"?>
<!DOCTYPE svg PUBLIC "-//W3C//DTD SVG 20010904//EN"
 "http://www.w3.org/TR/2001/REC-SVG-20010904/DTD/svg10.dtd">
<svg version="1.0" xmlns="http://www.w3.org/2000/svg"
 width="378.000000pt" height="386.000000pt" viewBox="0 0 378.000000 386.000000"
 preserveAspectRatio="xMidYMid meet">

<g transform="translate(0.000000,386.000000) scale(0.100000,-0.100000)"
fill="#000000" stroke="none">
<path d="M945 3409 c-506 -241 -924 -444 -929 -452 -5 -8 -7 -21 -4 -28 3 -8
93 -56 199 -106 107 -51 522 -248 923 -438 401 -190 736 -345 745 -343 8 2 17
11 19 20 2 12 -20 27 -85 58 -559 261 -1332 635 -1326 640 4 4 319 154 698
334 380 181 700 334 713 342 22 14 22 18 22 202 0 192 -4 213 -39 211 -9 -1
-430 -198 -936 -440z"/>
<path d="M3565 2705 c-60 -30 -447 -215 -860 -412 -734 -351 -789 -380 -742
-399 8 -3 64 18 123 47 247 118 1220 581 1232 586 9 4 12 -143 12 -713 l1
-719 42 -20 c23 -11 117 -60 210 -108 l167 -88 0 921 c0 616 -3 928 -10 941
-17 30 -55 22 -175 -36z"/>
<path d="M24 2735 c-4 -9 -3 -20 2 -25 5 -4 395 -191 867 -416 l857 -408 0
-733 c0 -403 -1 -733 -3 -733 -2 0 -377 178 -833 395 -456 218 -841 398 -856
402 -37 7 -39 -7 -36 -210 l3 -168 870 -415 c478 -228 876 -413 885 -412 13 3
15 105 15 956 l0 953 -860 410 c-473 225 -870 412 -882 415 -16 4 -25 1 -29
-11z"/>
</g>
</svg>
