<?xml version="1.0" standalone="no"?><!DOCTYPE svg PUBLIC "-//W3C//DTD SVG 1.1//EN" "http://www.w3.org/Graphics/SVG/1.1/DTD/svg11.dtd"><svg t="1639279995753" class="icon" viewBox="0 0 1024 1024" version="1.1" xmlns="http://www.w3.org/2000/svg" p-id="5363" width="16" height="16" xmlns:xlink="http://www.w3.org/1999/xlink"><defs><style type="text/css"></style></defs><path d="M149.33 517.97h341.34v106.65h42.66V517.97h341.34v127.97h42.67V475.3h-384v-85.33h-42.67v85.33h-384v170.65h42.67V517.97z m85.34 170.65H21.33A21.33 21.33 0 0 0 0 709.94v170.67c0 11.775 9.544 21.33 21.33 21.33h213.34c11.776 0 21.33-9.555 21.33-21.33V709.95c0-11.777-9.564-21.33-21.33-21.33z m384 0H405.33A21.33 21.33 0 0 0 384 709.94v170.67c0 11.775 9.544 21.33 21.33 21.33h213.34c11.776 0 21.33-9.555 21.33-21.33V709.95c0-11.777-9.564-21.33-21.33-21.33z m384 0H789.33A21.33 21.33 0 0 0 768 709.94v170.67c0 11.775 9.544 21.33 21.33 21.33h213.34c11.776 0 21.33-9.555 21.33-21.33V709.95c0-11.777-9.564-21.33-21.33-21.33zM341.33 325.98h341.34c11.776 0 21.33-9.554 21.33-21.34V133.98a21.34 21.34 0 0 0-21.33-21.34H341.33A21.33 21.33 0 0 0 320 133.98v170.66c0 11.776 9.544 21.34 21.33 21.34z" p-id="5364"></path></svg>