<?xml version="1.0" standalone="no"?><!DOCTYPE svg PUBLIC "-//W3C//DTD SVG 1.1//EN" "http://www.w3.org/Graphics/SVG/1.1/DTD/svg11.dtd"><svg t="1642129456592" class="icon" viewBox="0 0 1024 1024" version="1.1" xmlns="http://www.w3.org/2000/svg" p-id="2098" xmlns:xlink="http://www.w3.org/1999/xlink" width="16" height="16"><defs><style type="text/css"></style></defs><path d="M852.335286 971.272293h-71.409378V803.137255v-85.900767a231.687639 231.687639 0 0 0-125.01006-205.498381 231.687639 231.687639 0 0 0 125.01006-205.49838V52.378517h71.409378a26.189258 26.189258 0 0 0 0-52.378517h-680.920716a26.189258 26.189258 0 0 0 0 52.378517h71.409377v254.035805a231.687639 231.687639 0 0 0 125.01006 205.49838 231.687639 231.687639 0 0 0-125.01006 205.323786v254.384995H171.41457a26.189258 26.189258 0 0 0 0 52.378517h680.920716a26.189258 26.189258 0 0 0 0-52.378517zM728.547391 52.378517v254.035805a178.959932 178.959932 0 0 1-2.79352 30.204945c-39.458483 12.047059-132.168457 32.998465-209.514067-5.587042-82.059676-41.204433-171.277749-26.887639-220.862745-13.094629V52.378517zM306.900333 369.093947c41.379028-11.872464 118.200853-25.490878 186.467519 8.729753a279.352089 279.352089 0 0 0 125.883035 27.586019 412.044331 412.044331 0 0 0 84.678602-9.253538 179.309122 179.309122 0 0 1-154.865815 89.567263h-74.552088a179.309122 179.309122 0 0 1-167.611253-116.629497z m167.611253 168.833419h11.174083v50.807161a26.189258 26.189258 0 0 0 52.378517 0v-50.807161h11.174084a179.483717 179.483717 0 0 1 179.309121 179.309122v66.520716c-32.649275 10.126513-109.4711 28.633589-180.705882 7.332992a192.054561 192.054561 0 0 1-31.07792-12.047059 244.433078 244.433078 0 0 0-36.490366-14.491389 333.127366 333.127366 0 0 0-185.070759 1.39676v-48.71202a179.483717 179.483717 0 0 1 179.309122-179.309122zM295.202464 971.272293V820.59676c8.031373-2.618926 18.856266-5.761637 31.7763-8.729752a310.953794 310.953794 0 0 1 73.679113-7.856778 234.131969 234.131969 0 0 1 55.346633 7.507588 195.371867 195.371867 0 0 1 37.188747 13.967604 242.687127 242.687127 0 0 0 28.109804 11.872464 295.240239 295.240239 0 0 0 98.122421 15.88815 422.170844 422.170844 0 0 0 109.121909-15.18977v132.692242z" p-id="2099"></path><path d="M511.874928 708.157545a26.189258 26.189258 0 0 0 26.189258-26.189259v-13.793009a26.189258 26.189258 0 0 0-52.378517 0v13.793009a26.189258 26.189258 0 0 0 26.189259 26.189259z" p-id="2100"></path></svg>