<?xml version="1.0" standalone="no"?><!DOCTYPE svg PUBLIC "-//W3C//DTD SVG 1.1//EN" "http://www.w3.org/Graphics/SVG/1.1/DTD/svg11.dtd"><svg t="1644896851300" class="icon" viewBox="0 0 1024 1024" version="1.1" xmlns="http://www.w3.org/2000/svg" p-id="1980" xmlns:xlink="http://www.w3.org/1999/xlink" width="16" height="16"><defs><style type="text/css"></style></defs><path d="M341.333333 640H42.666667V426.666667h298.666666z m341.333334 42.666667v256h245.333333a53.393333 53.393333 0 0 0 53.333333-53.333334v-202.666666z m0-42.666667h298.666666V426.666667h-298.666666z m298.666666-256V181.333333a53.393333 53.393333 0 0 0-53.333333-53.333333H96a53.393333 53.393333 0 0 0-53.333333 53.333333v202.666667z m-640 298.666667H42.666667v202.666666a53.393333 53.393333 0 0 0 53.333333 53.333334h245.333333z m42.666667 256h256v-256H384z m0-298.666667h256V426.666667H384z" p-id="1981"></path></svg>