<?xml version="1.0" standalone="no"?><!DOCTYPE svg PUBLIC "-//W3C//DTD SVG 1.1//EN" "http://www.w3.org/Graphics/SVG/1.1/DTD/svg11.dtd"><svg t="1641525830160" class="icon" fill="#333333" viewBox="0 0 1024 1024" version="1.1" xmlns="http://www.w3.org/2000/svg" p-id="2461" xmlns:xlink="http://www.w3.org/1999/xlink" width="16" height="16"><defs><style type="text/css"></style></defs><path d="M748.416 313.088V312.96a3.456 3.456 0 0 0-0.448-0.832c-1.088-1.408-3.84-1.216-6.144 0.512l-7.68 6.016-1.408 1.216-36.608 28.16h18.24l15.616-14.72 2.752-2.624 10.88-10.304c0.384-0.256 0.512-0.704 0.768-1.024l1.728-1.344c1.472-1.28 2.432-2.88 2.496-4.224-0.064-0.256-0.064-0.512-0.192-0.704z m0 0V312.96a3.456 3.456 0 0 0-0.448-0.832c-1.088-1.408-3.84-1.216-6.144 0.512l-7.68 6.016-1.408 1.216-36.608 28.16h18.24l15.616-14.72 2.752-2.624 10.88-10.304c0.384-0.256 0.512-0.704 0.768-1.024l1.728-1.344c1.472-1.28 2.432-2.88 2.496-4.224-0.064-0.256-0.064-0.512-0.192-0.704z m-9.6-93.376l-6.144 2.816-65.28 29.952-6.144 2.816-188.608 86.592-13.312 6.144-142.144 65.216-13.248 6.08-225.984 103.808 220.096 136 45.376 182.976 83.712-107.008 234.176 151.616 6.144 4.032 47.744 30.848 17.472-67.008 6.144-23.616 106.944-411.648 1.6-6.144 16.96-65.216 1.536-6.144 53.184-204.992-180.224 82.88z m-344.32 422.656v0.128h-0.064l-29.824 86.272-8.064-110.144 246.272-190.016 19.904-15.36 32.064-24.768 12.608-9.792 25.472-19.648-25.472 24.128-15.36 14.656-16.256 15.424-20.352 19.2-219.584 208.192a4.224 4.224 0 0 0-1.344 1.728z m385.472-229.12l-1.664 6.08-39.488 152.192-6.144 23.616-57.856 222.656-7.36-4.608-6.144-4.032-261.312-163.264 0.512-0.384 224.768-212.928 20.352-19.392 6.336-6.016 15.488-14.656 38.848-36.928 8-7.552 15.616-14.72 2.752-2.624 10.88-10.304c0.384-0.256 0.512-0.704 0.768-1.024l1.728-1.344c1.472-1.28 2.432-2.88 2.496-4.224 0-0.256 0-0.512-0.128-0.704V312.96a3.456 3.456 0 0 0-0.448-0.832c-1.088-1.408-3.84-1.216-6.144 0.512l-7.68 6.016-1.408 1.216-36.608 28.16-6.976 5.376-21.632 16.704-12.416 9.6-43.52 33.536-19.456 14.976L351.424 614.016c-0.32 0.128-0.576 0.64-0.896 0.896L215.744 531.584l244.416-112.256 13.312-6.144 142.08-65.216 13.248-6.144 32.512-14.848 6.144-2.816 65.28-30.016 6.144-2.752 82.624-38.016-22.976 88.448-1.472 6.144-17.088 65.28z m-31.552-100.16V312.96a3.456 3.456 0 0 0-0.448-0.832c-1.088-1.408-3.84-1.216-6.144 0.512l-7.68 6.016-1.408 1.216-36.608 28.16h18.24l15.616-14.72 2.752-2.624 10.88-10.304c0.384-0.256 0.512-0.704 0.768-1.024l1.728-1.344c1.472-1.28 2.432-2.88 2.496-4.224-0.064-0.256-0.064-0.512-0.192-0.704z m0 0V312.96a3.456 3.456 0 0 0-0.448-0.832c-1.088-1.408-3.84-1.216-6.144 0.512l-7.68 6.016-1.408 1.216-36.608 28.16h18.24l15.616-14.72 2.752-2.624 10.88-10.304c0.384-0.256 0.512-0.704 0.768-1.024l1.728-1.344c1.472-1.28 2.432-2.88 2.496-4.224-0.064-0.256-0.064-0.512-0.192-0.704zM740.8 44.544v161.664l-65.216 30.016V44.544c0-22.336 14.592-40.512 32.576-40.512a29.44 29.44 0 0 1 23.104 11.904 45.504 45.504 0 0 1 9.536 28.608z" p-id="2462"></path><path d="M740.8 870.848v108.608c0 22.272-14.592 40.512-32.64 40.512a29.568 29.568 0 0 1-22.976-11.904 45.888 45.888 0 0 1-9.536-28.608v-72.384l47.744 30.848 17.408-67.072zM1024.064 380.672c0 8.96-4.48 17.152-11.776 23.04a45.888 45.888 0 0 1-28.608 9.472h-120l16.96-65.216h103.04c22.336 0.064 40.384 14.72 40.384 32.704zM434.88 348.032L292.736 413.248H40.576c-22.4 0-40.512-14.592-40.512-32.576 0-9.024 4.544-17.152 11.84-23.04a46.08 46.08 0 0 1 28.672-9.6h394.304z" p-id="2463"></path></svg>