<svg t="1675067481541" class="icon" viewBox="0 0 1024 1024" version="1.1" xmlns="http://www.w3.org/2000/svg" p-id="3340" width="16" height="16"><path d="M512 512m-160 0a160 160 0 1 0 320 0 160 160 0 1 0-320 0Z" fill="#2c2c2c" p-id="3341"></path><path d="M512 704c-105.888 0-192-86.112-192-192s86.112-192 192-192 192 86.112 192 192-86.112 192-192 192z m0-320c-70.592 0-128 57.408-128 128s57.408 128 128 128 128-57.408 128-128-57.408-128-128-128zM192 320c-70.592 0-128-57.408-128-128s57.408-128 128-128 128 57.408 128 128-57.408 128-128 128z m0-192c-35.296 0-64 28.704-64 64s28.704 64 64 64 64-28.704 64-64-28.704-64-64-64zM192 960c-70.592 0-128-57.408-128-128s57.408-128 128-128 128 57.408 128 128-57.408 128-128 128z m0-192c-35.296 0-64 28.704-64 64s28.704 64 64 64 64-28.704 64-64-28.704-64-64-64zM832 960c-70.592 0-128-57.408-128-128s57.408-128 128-128 128 57.408 128 128-57.408 128-128 128z m0-192c-35.296 0-64 28.704-64 64s28.704 64 64 64 64-28.704 64-64-28.704-64-64-64zM832 320c-70.592 0-128-57.408-128-128s57.408-128 128-128 128 57.408 128 128-57.408 128-128 128z m0-192c-35.296 0-64 28.704-64 64s28.704 64 64 64 64-28.704 64-64-28.704-64-64-64z" fill="#2c2c2c" p-id="3342"></path><path d="M259.392 796.64a31.968 31.968 0 0 1-22.624-54.624l139.488-139.456a31.968 31.968 0 1 1 45.248 45.248l-139.488 139.456a31.904 31.904 0 0 1-22.624 9.376zM640 416a31.968 31.968 0 0 1-22.624-54.624l124.128-124.096a31.968 31.968 0 1 1 45.248 45.248l-124.128 124.096A31.904 31.904 0 0 1 640 416zM764.192 796.192a31.904 31.904 0 0 1-22.624-9.376l-131.616-131.616a31.968 31.968 0 1 1 45.248-45.248l131.616 131.616a31.968 31.968 0 0 1-22.624 54.624z" fill="#2c2c2c" p-id="3343"></path><path d="M398.848 430.816a31.904 31.904 0 0 1-22.624-9.376L237.184 282.432a31.968 31.968 0 1 1 45.248-45.248l139.04 139.008a31.968 31.968 0 0 1-22.624 54.624z" fill="#2c2c2c" p-id="3344"></path></svg>