<?xml version="1.0" standalone="no"?><!DOCTYPE svg PUBLIC "-//W3C//DTD SVG 1.1//EN" "http://www.w3.org/Graphics/SVG/1.1/DTD/svg11.dtd"><svg xmlns="http://www.w3.org/2000/svg" viewBox="0 0 55 55"><defs><style>.logo_svg__cls-1{fill:#d5d2ca}.logo_svg__cls-2{fill:#fff}.logo_svg__cls-3{fill:#e0684b}.logo_svg__cls-4{fill:#bb464b}</style></defs><g id="logo_svg__UI"><path class="logo_svg__cls-2" d="m34.29 11.63-13.64 7.88v15.74l13.64 7.88 13.63-7.88V19.51Z"></path><path class="logo_svg__cls-3" d="m47.92 19.51-4.26-2.47-4.11 2.37 4.27 2.47 4.1-2.37zM24.76 21.88 38.39 14l-4.1-2.37-13.64 7.88 4.11 2.37zM30.02 29.84l4.27 2.47 4.27-2.47-4.27-2.46-4.27 2.46z"></path><path class="logo_svg__cls-4" d="M43.82 21.88v11l-9.53 5.5-9.53-5.5v-11l-4.11-2.37v15.74l13.64 7.88 13.63-7.88V19.51l-4.1 2.37z"></path><path class="logo_svg__cls-4" d="m34.29 22.45-4.27 2.46v4.93l4.27-2.46 4.27 2.46v-4.93l-4.27-2.46z"></path><path d="m43.82 21.88-5.26 3.03v4.93l-4.27 2.47v6.07l9.53-5.5v-11z" style="fill: rgb(224, 222, 216);"></path><path class="logo_svg__cls-1" d="m24.76 21.88 5.26 3.03v4.93l4.27 2.47v6.07l-9.53-5.5v-11z"></path><path class="logo_svg__cls-2" d="m38.39 14 5.27 3.04-4.11 2.37 4.27 2.47-5.26 3.03-4.27-2.46-4.27 2.46-5.26-3.03L38.39 14z"></path></g><path d="M0 0h55v55H0z" id="logo_svg__Icon_buttons" data-name="Icon buttons" style="fill: none;"></path></svg>