<?xml version="1.0" standalone="no"?><!DOCTYPE svg PUBLIC "-//W3C//DTD SVG 1.1//EN" "http://www.w3.org/Graphics/SVG/1.1/DTD/svg11.dtd"><svg t="1676278422081" class="icon" viewBox="0 0 1024 1024" version="1.1" xmlns="http://www.w3.org/2000/svg" p-id="3080" xmlns:xlink="http://www.w3.org/1999/xlink" width="200" height="200"><path d="M613.23 692.16c48.61-10.26 41.92-68.23 40.58-81.16-2.23-19.62-25.42-53.51-56.64-50.84-39.24 3.57-45.04 60.2-45.04 60.2-5.34 26.32 12.49 82.06 61.1 71.8z m51.29 100.79c-1.34 4.01-4.46 14.27-1.78 23.64 5.35 20.51 23.19 21.41 23.19 21.41h25.42v-62h-27.2c-12.05 3.12-18.29 12.94-19.63 16.95z m38.8-198.01c26.76 0 48.61-30.77 48.61-69.12 0-37.91-21.41-68.68-48.61-68.68-26.76 0-48.61 30.77-48.61 68.68 0 38.35 21.85 69.12 48.61 69.12z m115.05 4.46c35.68 4.46 58.87-33.45 63.33-62.43 4.46-28.99-18.28-62.43-43.7-68.23-25.42-5.8-57.08 34.78-59.76 61.54-3.57 32.11 4.46 64.66 40.13 69.12z m87.86 170.36s-55.3-42.81-87.85-89.19c-43.7-68.23-106.14-40.58-127.1-5.8-20.51 34.78-53.07 56.64-57.53 62.43-4.46 5.8-66.89 39.24-53.07 100.79 13.82 61.1 62.43 60.2 62.43 60.2s35.68 3.57 77.15-5.8c41.47-9.37 77.15 2.23 77.15 2.23s96.77 32.55 123.53-29.88c26.76-62.87-14.71-94.98-14.71-94.98z m-165.9 92.76h-62.88c-27.2-5.35-37.91-24.08-39.24-27.2-1.34-3.12-8.92-18.28-4.91-43.7 11.59-37.91 45.49-40.58 45.49-40.58h33.45V710l28.54 0.45-0.45 152.07z m117.29-0.45h-72.69c-28.1-7.14-29.43-27.2-29.43-27.2V754.6l29.43-0.45v72.24c1.78 7.58 11.15 8.92 11.15 8.92h29.88V754.6h31.22c-0.01 0 0.44 107.47 0.44 107.47z m103.01-214.06c0-13.82-11.59-55.74-53.96-55.74-42.81 0-48.61 39.24-48.61 67.34 0 26.31 2.23 63.77 55.3 62.43 53.07-0.89 47.27-60.2 47.27-74.03z m-495.45 90.53c4.46 9.37 11.15 16.95 20.07 22.74 8.92 5.35 18.73 8.47 29.43 8.47s20.07-2.68 29.43-8.47c8.92-5.35 16.05-12.93 20.51-22.74l3.57-7.58c-13.38-5.35-25.87-14.27-35.68-26.31-23.19-28.1-28.99-65.56-24.53-90.98 4.01-34.78 26.31-92.76 85.18-98.11 2.23 0 4.91-0.45 7.14-0.45 3.57 0 6.69 0 9.81 0.45 4.46-58.42 43.7-103.02 93.2-103.02 4.91 0 9.37 0.89 13.82 1.78l6.24-12.93c9.37-20.51 14.27-46.38 14.27-78.04 0-61.54-21.85-114.16-65.11-157.42-43.7-43.7-96.33-65.56-157.87-65.56s-114.16 21.85-157.42 65.11c-43.7 43.7-65.56 96.33-65.56 157.87 0 31.66 4.91 57.53 14.27 78.04l159.23 337.15z m-29.44-494.12c21.85-21.85 48.16-32.55 78.93-32.55 30.77 0 57.08 10.7 78.93 32.55s32.55 48.16 32.55 78.93-10.7 57.08-32.55 78.93c-21.85 21.85-48.16 32.55-78.93 32.55-30.77 0-57.08-10.7-78.93-32.55-21.85-21.85-32.55-48.16-32.55-78.93s10.7-57.07 32.55-78.93zM563.73 903.1H68.72L247.1 635.53h119.96l20.96 44.6H270.74L151.67 858.51h388.87c5.8 18.28 13.83 33 23.19 44.59z" p-id="3081" fill="#d81e06"></path></svg>